HIERARCHY
ROOT Hips
{
	OFFSET 0.00000 0.00000 0.00000
	CHANNELS 6 Xposition Yposition Zposition Zrotation Yrotation Xrotation 
	JOINT LHipJoint
	{
		OFFSET 0 0 0
		CHANNELS 3 Zrotation Yrotation Xrotation
		JOINT LeftHip
		{
			OFFSET 1.61024 -1.73873 0.75100
			CHANNELS 3 Zrotation Yrotation Xrotation
			JOINT LeftKnee
			{
				OFFSET 2.29819 -6.31424 0.00000
				CHANNELS 3 Zrotation Yrotation Xrotation
				JOINT LeftAnkle
				{
					OFFSET 2.76618 -7.60002 0.00000
					CHANNELS 3 Zrotation Yrotation Xrotation
					JOINT LeftToe
					{
						OFFSET 0.16838 -0.46263 2.02361
						CHANNELS 3 Zrotation Yrotation Xrotation
						End Site
						{
							OFFSET 0.00000 -0.00000 1.04662
						}
					}
				}
			}
		}
	}
	JOINT RHipJoint
	{
		OFFSET 0 0 0
		CHANNELS 3 Zrotation Yrotation Xrotation
		JOINT RightHip
		{
			OFFSET -1.46153 -1.73873 0.75100
			CHANNELS 3 Zrotation Yrotation Xrotation
			JOINT RightKnee
			{
				OFFSET -2.38373 -6.54924 0.00000
				CHANNELS 3 Zrotation Yrotation Xrotation
				JOINT RightAnkle
				{
					OFFSET -2.80314 -7.70157 0.00000
					CHANNELS 3 Zrotation Yrotation Xrotation
					JOINT RightToe
					{
						OFFSET -0.16142 -0.44349 2.02101
						CHANNELS 3 Zrotation Yrotation Xrotation
						End Site
						{
							OFFSET -0.00000 -0.00000 1.04381
						}
					}
				}
			}
		}
	}
	JOINT lowerback
	{
		OFFSET 0 0 0
		CHANNELS 3 Zrotation Yrotation Xrotation
		JOINT Chest
		{
			OFFSET -0.01629 1.66985 0.14750
			CHANNELS 3 Zrotation Yrotation Xrotation
			JOINT Chest2
			{
				OFFSET 0.02086 1.62378 0.20980
				CHANNELS 3 Zrotation Yrotation Xrotation
				JOINT lowerneck
				{
					OFFSET 0 0 0
					CHANNELS 3 Zrotation Yrotation Xrotation
					JOINT Neck
					{
						OFFSET -0.05690 1.78719 0.08702
						CHANNELS 3 Zrotation Yrotation Xrotation
						JOINT Head
						{
							OFFSET 0.16035 1.73871 -0.38470
							CHANNELS 3 Zrotation Yrotation Xrotation
							End Site
							{
								OFFSET 0.05645 1.80914 -0.14081
							}
						}
					}
				}
				JOINT LeftCollar
				{
					OFFSET 0 0 0
					CHANNELS 3 Zrotation Yrotation Xrotation
					JOINT LeftShoulder
					{
						OFFSET 2.83089 1.66494 -0.46008
CHANNELS 3 Zrotation Xrotation Yrotation
						JOINT LeftElbow
						{
OFFSET 0 -5.548930 -0.000000
CHANNELS 3 Zrotation Xrotation Yrotation
							JOINT LeftWrist
							{
OFFSET 0 -3.028980 -0.000000
CHANNELS 3 Zrotation Xrotation Yrotation
								JOINT lhand
								{
									OFFSET 0 0 0
CHANNELS 3 Zrotation Xrotation Yrotation
									JOINT LFingers
									{
OFFSET 0 -0.640950 -0.000000
CHANNELS 3 Zrotation Xrotation Yrotation
										End Site
										{
OFFSET 0 -0.516750 -0.000000
										}
									}
								}
								JOINT LThumb
								{
OFFSET 0 0.000000 0.000000
CHANNELS 3 Zrotation Xrotation Yrotation
									End Site
									{
OFFSET 0 -0.524640 0.524640
									}
								}
							}
						}
					}
				}
				JOINT RightCollar
				{
					OFFSET 0 0 0
					CHANNELS 3 Zrotation Yrotation Xrotation
					JOINT RightShoulder
					{
						OFFSET -2.84442 1.45761 -0.18088
CHANNELS 3 Zrotation Xrotation Yrotation
						JOINT RightElbow
						{
OFFSET 0 -5.351900 -0.000000
CHANNELS 3 Zrotation Xrotation Yrotation
							JOINT RightWrist
							{
OFFSET 0 -3.025310 -0.000000
CHANNELS 3 Zrotation Xrotation Yrotation
								JOINT rhand
								{
									OFFSET 0 0 0
CHANNELS 3 Zrotation Xrotation Yrotation
									JOINT RFingers
									{
OFFSET 0 -0.783890 -0.000000
CHANNELS 3 Zrotation Xrotation Yrotation
										End Site
										{
OFFSET 0 -0.631990 -0.000000
										}
									}
								}
								JOINT RThumb
								{
OFFSET 0 0.000000 0.000000
CHANNELS 3 Zrotation Xrotation Yrotation
									End Site
									{
OFFSET 0 -0.641640 0.641640
									}
								}
							}
						}
					}
				}
			}
		}
	}
}
MOTION
Frames: 12
Frame Time: .0083333
0.4297 17.8356 0.6672 48.6321 91.2978 64.5611 0.0000 0.0000 0.0000 0.0000 0.0000 0.0000 0.0000 0.0000 0.0000 0.0000 0.0000 0.0000 0.0000 0.0000 0.0000 0.0000 0.0000 0.0000 18.7830 16.6979 -9.6166 -0.5788 -4.8716 13.5427 0.0816 -15.5994 -21.2932 -0.5420 4.7168 -13.1026 -0.2583 -1.7846 -11.7572 1.6333 -1.6503 -10.9963 1.7114 -0.4658 -4.9318 -7.0988 -3.1440 -7.6718 8.9657 -4.7410 21.0304 3.7752 -1.8169 8.1251 0.0000 0.0000 0.0000 1.0132 12.4176 10.7106 10.6536 -17.7553 1.6687 23.5416 16.4731 -12.6862 0.0 0.0 0.0 -7.1250 0.0 0.0 -3.4330 43.7489 -0.1061 0.0000 0.0000 0.0000 -5.4406 8.1285 4.8698 -3.6564 -6.3033 -0.2014 -29.4283 -3.8756 -22.1929 0.0 0.0 0.0 7.1250 0.0 -0.0 -0.3397 4.8825 -0.3096
0.4309 17.8352 0.6674 49.6198 91.2820 65.5344 0.0000 0.0000 0.0000 0.0000 0.0000 0.0000 0.0000 0.0000 0.0000 0.0000 0.0000 0.0000 0.0000 0.0000 0.0000 0.0000 0.0000 0.0000 18.7822 16.7358 -9.6005 -0.5813 -4.8819 13.5719 0.0614 -15.5303 -21.4063 -0.5254 4.6452 -12.8992 -0.3210 -1.8010 -11.9146 1.6825 -1.6733 -10.9009 1.7915 -0.4757 -4.7385 -7.1086 -3.1379 -7.7270 8.9088 -4.7178 21.0140 3.7587 -1.8122 8.1268 -0.0000 0.0000 0.0000 0.9539 12.3167 10.7608 10.6448 -17.7418 1.6661 23.4857 16.4745 -12.7413 0.0 0.0 0.0 -7.1250 0.0 0.0 -3.4923 43.8019 -0.1034 -0.0000 0.0000 0.0000 -5.4924 8.0816 4.9242 -3.7266 -6.4231 -0.2092 -29.448 -3.7491 -21.9921 0.0 0.0 0.0 7.1250 0.0 -0.0 -0.3807 5.099 -0.3454
0.4292 17.8345 0.6673 49.0916 91.2244 64.9829 0.0000 0.0000 0.0000 0.0000 0.0000 0.0000 0.0000 0.0000 0.0000 0.0000 0.0000 0.0000 0.0000 0.0000 0.0000 0.0000 0.0000 0.0000 18.7282 16.7196 -9.5888 -0.5825 -4.8870 13.5867 0.0478 -15.4539 -21.4393 -0.5112 4.5828 -12.7224 -0.3808 -1.8085 -11.9332 1.6778 -1.6829 -10.8617 1.8185 -0.4791 -4.6835 -7.1022 -3.1346 -7.7170 8.9066 -4.7134 20.9871 3.7568 -1.8107 8.1153 -0.0000 0.0000 0.0000 0.9367 12.2905 10.5999 10.6322 -17.7224 1.6622 23.7747 16.3499 -12.8428 0.0 0.0 0.0 -7.1250 0.0 0.0 -3.2440 43.9447 -0.0846 -0.0000 0.0000 0.0000 -5.4913 8.0778 4.956 -3.7740 -6.504 -0.2145 -29.3633 -3.6618 -21.9497 0.0 0.0 0.0 7.1250 0.0 -0.0 -0.3341 5.1637 -0.3027
0.4279 17.8352 0.6677 49.2993 91.2333 65.2459 0.0000 0.0000 0.0000 0.0000 0.0000 0.0000 0.0000 0.0000 0.0000 0.0000 0.0000 0.0000 0.0000 0.0000 0.0000 0.0000 0.0000 0.0000 18.7256 16.7045 -9.6874 -0.5844 -4.8947 13.6085 0.0650 -15.5088 -21.3369 -0.5406 4.7108 -13.0855 -0.3554 -1.8021 -11.9622 1.6669 -1.6739 -10.8822 1.7932 -0.4753 -4.6916 -7.0233 -3.1488 -7.7508 8.8194 -4.7275 21.0102 3.7123 -1.8184 8.1269 -0.0000 -0.0000 0.0000 0.9597 12.2663 10.7283 10.6148 -17.6954 1.6569 23.7307 16.3816 -12.8024 0.0 0.0 0.0 -7.1250 0.0 0.0 -3.2781 43.8959 -0.0894 -0.0000 -0.0000 0.0000 -5.4246 8.1363 4.9408 -3.8172 -6.5777 -0.2194 -29.1564 -3.5537 -21.9808 0.0 0.0 0.0 7.1250 0.0 -0.0 -0.2009 5.1735 -0.182
0.4293 17.8358 0.6671 50.7292 91.2666 66.7027 0.0000 0.0000 0.0000 0.0000 0.0000 0.0000 0.0000 0.0000 0.0000 0.0000 0.0000 0.0000 0.0000 0.0000 0.0000 0.0000 0.0000 0.0000 18.7631 16.6341 -9.7784 -0.5879 -4.9093 13.6499 0.0655 -15.4576 -21.2575 -0.5678 4.8261 -13.4132 -0.2928 -1.8057 -12.0275 1.6827 -1.6830 -10.8708 1.7724 -0.4835 -4.6450 -7.0316 -3.1346 -7.7103 8.8549 -4.7131 20.9373 3.7260 -1.8114 8.0946 0.0000 -0.0000 0.0000 0.9576 12.2414 10.7702 10.5896 -17.6564 1.6493 23.6855 16.281 -12.7034 0.0 0.0 0.0 -7.1250 0.0 0.0 -3.3044 43.784 -0.0993 0.0000 -0.0000 0.0000 -5.3989 8.2104 4.9858 -3.9014 -6.7213 -0.2292 -28.9965 -3.3754 -21.9105 0.0 0.0 0.0 7.1250 0.0 -0.0 -0.1111 5.2842 -0.1004
0.4301 17.8375 0.6676 50.1204 91.2308 66.1027 0.0000 0.0000 0.0000 0.0000 0.0000 0.0000 0.0000 0.0000 0.0000 0.0000 0.0000 0.0000 0.0000 0.0000 0.0000 0.0000 0.0000 0.0000 18.7166 16.5530 -9.8314 -0.5889 -4.9134 13.6618 0.0505 -15.3400 -21.2470 -0.5587 4.7879 -13.3045 -0.3166 -1.8083 -12.0455 1.6599 -1.6856 -10.8667 1.7612 -0.4844 -4.6307 -7.0160 -3.1438 -7.7037 8.8892 -4.7349 20.9152 3.7325 -1.8178 8.0883 0.0000 -0.0000 0.0000 0.9997 12.2208 10.7163 10.5706 -17.627 1.6435 23.5633 16.174 -12.7332 0.0 0.0 0.0 -7.1250 0.0 0.0 -3.4204 43.8021 -0.1012 0.0000 -0.0000 0.0000 -5.3509 8.2743 4.9961 -3.9497 -6.8035 -0.2349 -28.8137 -3.2359 -21.9329 0.0 0.0 0.0 7.1250 0.0 -0.0 0.0059 5.2981 0.0053
0.4300 17.8373 0.6689 49.5246 91.1523 65.4632 0.0000 0.0000 0.0000 0.0000 0.0000 0.0000 0.0000 0.0000 0.0000 0.0000 0.0000 0.0000 0.0000 0.0000 0.0000 0.0000 0.0000 0.0000 18.6510 16.5624 -9.7899 -0.5906 -4.9202 13.6812 0.0392 -15.3006 -21.3099 -0.5423 4.7182 -13.1064 -0.4036 -1.8230 -11.9625 1.6539 -1.7007 -10.8681 1.8043 -0.4874 -4.6740 -7.0393 -3.1287 -7.7129 8.9203 -4.7163 20.9162 3.7489 -1.8078 8.0899 0.0000 0.0000 0.0000 0.9958 12.2655 10.6482 10.5945 -17.6641 1.6508 23.4895 16.0966 -12.865 0.0 0.0 0.0 -7.1250 0.0 0.0 -3.5080 43.9354 -0.0923 0.0000 0.0000 0.0000 -5.3603 8.3643 5.0542 -4.0290 -6.9386 -0.2444 -28.5867 -3.1305 -21.9012 0.0 0.0 0.0 7.1250 0.0 -0.0 0.1431 5.3799 0.129
0.4289 17.8367 0.6693 49.4755 91.1268 65.3934 0.0000 0.0000 0.0000 0.0000 0.0000 0.0000 0.0000 0.0000 0.0000 0.0000 0.0000 0.0000 0.0000 0.0000 0.0000 0.0000 0.0000 0.0000 18.6273 16.6098 -9.7768 -0.5938 -4.9332 13.7183 0.0430 -15.3476 -21.3373 -0.5431 4.7217 -13.1165 -0.4010 -1.8156 -11.9301 1.6334 -1.6939 -10.8548 1.7825 -0.4860 -4.6779 -7.0398 -3.1310 -7.7474 8.9356 -4.7217 20.9213 3.7535 -1.8083 8.0988 0.0000 -0.0000 0.0000 1.0186 12.2645 10.568 10.5746 -17.6333 1.6447 23.5809 16.1642 -12.7767 0.0 0.0 0.0 -7.1250 0.0 0.0 -3.4109 43.8509 -0.0969 0.0000 -0.0000 0.0000 -5.3495 8.4675 5.0635 -4.1285 -7.1079 -0.2565 -28.3504 -3.0868 -22.0305 0.0 0.0 0.0 7.1250 0.0 -0.0 0.3080 5.2874 0.2783
0.4276 17.8362 0.6701 49.4999 91.1350 65.4292 0.0000 0.0000 0.0000 0.0000 0.0000 0.0000 0.0000 0.0000 0.0000 0.0000 0.0000 0.0000 0.0000 0.0000 0.0000 0.0000 0.0000 0.0000 18.6340 16.6485 -9.7979 -0.5966 -4.9445 13.7505 0.0524 -15.4054 -21.3204 -0.5436 4.7236 -13.1218 -0.3794 -1.8216 -11.9437 1.6348 -1.7054 -10.8351 1.7704 -0.4941 -4.6493 -7.0387 -3.1329 -7.8096 8.9327 -4.7223 20.9178 3.7515 -1.8081 8.1090 0.0000 -0.0000 0.0000 1.0197 12.2646 10.3004 10.6013 -17.6746 1.6528 23.688 16.0373 -12.7175 0.0 0.0 0.0 -7.1250 0.0 0.0 -3.3042 43.7993 -0.098 0.0000 -0.0000 0.0000 -5.34 8.5372 5.0952 -4.2408 -7.2989 -0.2706 -28.2109 -3.0385 -22.084 0.0 0.0 0.0 7.1250 0.0 -0.0 0.4021 5.2578 0.3636
0.4266 17.8359 0.6705 49.4502 91.1291 65.3977 0.0000 0.0000 0.0000 0.0000 0.0000 0.0000 0.0000 0.0000 0.0000 0.0000 0.0000 0.0000 0.0000 0.0000 0.0000 0.0000 0.0000 0.0000 18.6251 16.6508 -9.8147 -0.5963 -4.9437 13.7480 0.0522 -15.3993 -21.3137 -0.5191 4.6178 -12.8215 -0.3888 -1.8366 -11.9563 1.6427 -1.7247 -10.8320 1.7820 -0.5031 -4.6379 -6.9918 -3.1379 -7.8123 8.8659 -4.7223 20.8711 3.7196 -1.8122 8.0914 0.0000 -0.0000 0.0000 1.0231 12.3134 9.9076 10.6654 -17.7735 1.6723 23.6765 16.1539 -13.1405 0.0 0.0 0.0 -7.1250 0.0 0.0 -3.3797 44.2541 -0.0623 0.0000 -0.0000 0.0000 -5.3474 8.6105 5.1463 -4.3245 -7.4411 -0.2813 -28.1793 -2.8898 -21.9654 0.0 0.0 0.0 7.1250 0.0 -0.0 0.4059 5.3935 0.366
0.4266 17.8361 0.6704 49.6138 91.1265 65.5845 0.0000 0.0000 0.0000 0.0000 0.0000 0.0000 0.0000 0.0000 0.0000 0.0000 0.0000 0.0000 0.0000 0.0000 0.0000 0.0000 0.0000 0.0000 18.6179 16.6556 -9.8343 -0.5952 -4.9390 13.7345 0.0420 -15.3463 -21.3456 -0.5048 4.5544 -12.6418 -0.3850 -1.8472 -11.9654 1.6417 -1.7384 -10.8389 1.7777 -0.5099 -4.6403 -6.9445 -3.1297 -7.8386 8.8431 -4.7133 20.8820 3.7046 -1.8056 8.0975 -0.0000 -0.0000 0.0000 1.0463 12.3684 9.5273 10.7113 -17.8443 1.6864 23.8079 16.3159 -13.3072 0.0 0.0 0.0 -7.1250 0.0 0.0 -3.2853 44.4497 -0.0447 -0.0000 -0.0000 0.0000 -5.316 8.6558 5.1851 -4.3842 -7.5425 -0.2891 -28.0179 -2.6527 -21.8963 0.0 0.0 0.0 7.1250 0.0 -0.0 0.4974 5.5017 0.4475
0.4268 17.8361 0.6715 51.4004 91.1631 67.3201 0.0000 0.0000 0.0000 0.0000 0.0000 0.0000 0.0000 0.0000 0.0000 0.0000 0.0000 0.0000 0.0000 0.0000 0.0000 0.0000 0.0000 0.0000 18.6975 16.5988 -9.7933 -0.5941 -4.9347 13.7224 0.0578 -15.3603 -21.1977 -0.5548 4.7714 -13.2578 -0.3555 -1.8624 -11.9048 1.6770 -1.7624 -10.8271 1.7975 -0.5235 -4.6593 -6.9552 -3.1190 -7.8603 8.8228 -4.6926 20.8900 3.7015 -1.7983 8.1021 -0.0000 0.0000 0.0000 1.0077 12.4499 9.1833 10.7803 -17.9508 1.7076 23.9054 16.5024 -13.3973 0.0 0.0 0.0 -7.1250 0.0 0.0 -3.2098 44.5587 -0.035 -0.0000 0.0000 0.0000 -5.3323 8.689 5.2626 -4.4366 -7.6313 -0.296 -27.8426 -2.474 -21.834 0.0 0.0 0.0 7.1250 0.0 -0.0 0.5988 5.6049 0.5374
